<?xml version="1.0" standalone="no"?>
<!DOCTYPE svg PUBLIC "-//W3C//DTD SVG 20010904//EN"
 "http://www.w3.org/TR/2001/REC-SVG-20010904/DTD/svg10.dtd">
<svg version="1.0" xmlns="http://www.w3.org/2000/svg"
 width="200.000000pt" height="200.000000pt" viewBox="0 0 200.000000 200.000000"
 preserveAspectRatio="xMidYMid meet">

<g transform="translate(0.000000,200.000000) scale(0.100000,-0.100000)"
fill="#000000" stroke="none">
<path d="M1130 1761 c-85 -4 -154 -11 -166 -18 -12 -7 -88 -31 -170 -53 -82
-23 -174 -54 -204 -69 -106 -53 -225 -124 -260 -155 -20 -17 -64 -52 -98 -78
-35 -28 -70 -64 -82 -87 -22 -44 -26 -113 -10 -157 11 -29 520 -784 554 -822
48 -54 144 -77 212 -52 15 6 66 39 113 73 82 60 91 64 186 82 76 14 139 18
265 16 185 -2 206 2 263 57 66 64 67 72 59 627 -7 477 -8 491 -29 531 -27 52
-72 90 -121 104 -38 10 -255 11 -512 1z m505 -85 c71 -30 69 -15 76 -551 5
-427 4 -484 -10 -514 -32 -69 -34 -69 -357 -77 -266 -6 -293 -5 -328 11 -67
32 -66 21 -73 568 l-6 493 31 35 30 34 179 5 c357 11 422 11 458 -4z m-775
-408 c0 -189 3 -374 6 -413 4 -38 4 -67 0 -64 -12 12 -127 694 -121 725 7 42
60 91 103 93 9 1 12 -74 12 -341z m-196 260 c-4 -30 17 -177 70 -482 42 -241
75 -440 74 -442 -2 -1 -61 186 -131 417 -130 424 -135 449 -104 490 9 12 79
56 94 59 2 0 0 -19 -3 -42z m-59 -550 c69 -224 125 -411 125 -415 0 -10 -328
663 -351 720 -26 66 -16 102 41 146 l45 33 8 -38 c4 -22 64 -222 132 -446z
m-315 313 c0 -9 75 -170 166 -357 169 -346 193 -397 176 -379 -6 6 -103 147
-216 314 -220 325 -225 336 -191 401 25 48 65 61 65 21z"/>
</g>
</svg>
