<svg xmlns="http://www.w3.org/2000/svg" version="1.1" xmlns:xlink="http://www.w3.org/1999/xlink" xmlns:svgjs="http://svgjs.dev/svgjs" width="1500" height="1500" viewBox="0 0 1500 1500"><rect width="1500" height="1500" fill="#ffffff"></rect><g transform="matrix(0.6666666666666666,0,0,0.6666666666666666,249.39393939393943,653.2133905079942)"><svg viewBox="0 0 396 77" data-background-color="#084152" preserveAspectRatio="xMidYMid meet" height="291" width="1500" xmlns="http://www.w3.org/2000/svg" xmlns:xlink="http://www.w3.org/1999/xlink"><g id="tight-bounds" transform="matrix(1,0,0,1,0.2400000000000091,-0.08469623255439274)"><svg viewBox="0 0 395.52 77.16939246510876" height="77.16939246510876" width="395.52"><g><svg viewBox="0 0 657.5016951472373 128.2843000588882" height="77.16939246510876" width="395.52"><g transform="matrix(1,0,0,1,261.9816951472374,26.97120688563139)"><svg viewBox="0 0 395.52 74.34188628762541" height="74.34188628762541" width="395.52"><g id="textblocktransform"><svg viewBox="0 0 395.52 74.34188628762541" height="74.34188628762541" width="395.52" id="textblock"><g><svg viewBox="0 0 395.52 74.34188628762541" height="74.34188628762541" width="395.52"><g transform="matrix(1,0,0,1,0,0)"><svg width="395.52" viewBox="4.69 -36.74 255.47000000000003 48.02" height="74.34188628762541" data-palette-color="#d3d3d3"><path d="M8.69 0L4.69 0 4.69-33.84 15.14-33.84Q18.58-33.84 21.23-32.93 23.88-32.03 25.38-29.97 26.88-27.91 26.88-24.41L26.88-24.41Q26.88-21.07 25.38-18.86 23.88-16.65 21.23-15.56 18.58-14.48 15.14-14.48L15.14-14.48 8.69-14.48 8.69 0ZM8.69-30.54L8.69-17.72 14.53-17.72Q18.53-17.72 20.7-19.38 22.88-21.04 22.88-24.41L22.88-24.41Q22.88-27.83 20.7-29.19 18.53-30.54 14.53-30.54L14.53-30.54 8.69-30.54ZM27.81 0L23.29 0 14.31-15.6 17.55-17.6 27.81 0ZM40.67 0.61L40.67 0.61Q36.74 0.61 34.9-1.86 33.05-4.32 33.05-9.11L33.05-9.11 33.05-24.98 36.96-24.98 36.96-9.62Q36.96-6.08 38.12-4.46 39.28-2.83 41.87-2.83L41.87-2.83Q43.82-2.83 45.37-3.85 46.92-4.86 48.78-7.15L48.78-7.15 48.78-24.98 52.68-24.98 52.68 0 49.44 0 49.09-3.96 48.92-3.96Q47.19-1.9 45.21-0.65 43.23 0.61 40.67 0.61ZM58.61 11.28L58.61 11.28Q57.56 11.28 56.62 11.07 55.68 10.86 55.02 10.55L55.02 10.55 55.85 7.57Q56.32 7.71 56.97 7.87 57.61 8.03 58.2 8.03L58.2 8.03Q60.15 8.03 60.75 6.69 61.35 5.35 61.35 3.03L61.35 3.03 61.35-24.98 65.3-24.98 65.3 3.08Q65.3 6.91 63.78 9.09 62.25 11.28 58.61 11.28ZM63.3-30.25L63.3-30.25Q62.1-30.25 61.37-30.99 60.64-31.74 60.64-32.98L60.64-32.98Q60.64-34.13 61.37-34.86 62.1-35.6 63.3-35.6L63.3-35.6Q64.5-35.6 65.23-34.86 65.96-34.13 65.96-32.98L65.96-32.98Q65.96-31.74 65.23-30.99 64.5-30.25 63.3-30.25ZM81.17 0.61L81.17 0.61Q77.24 0.61 75.4-1.86 73.55-4.32 73.55-9.11L73.55-9.11 73.55-24.98 77.46-24.98 77.46-9.62Q77.46-6.08 78.62-4.46 79.78-2.83 82.37-2.83L82.37-2.83Q84.32-2.83 85.87-3.85 87.42-4.86 89.27-7.15L89.27-7.15 89.27-24.98 93.18-24.98 93.18 0 89.93 0 89.59-3.96 89.42-3.96Q87.69-1.9 85.71-0.65 83.73 0.61 81.17 0.61ZM106.07 0.61L106.07 0.61Q103.82 0.61 102.81-0.77 101.8-2.15 101.8-4.79L101.8-4.79 101.8-36.74 105.75-36.74 105.75-4.47Q105.75-3.47 106.12-3.06 106.48-2.66 107-2.66L107-2.66Q107.19-2.66 107.38-2.67 107.56-2.69 107.88-2.76L107.88-2.76 108.39 0.2Q107.97 0.37 107.39 0.49 106.8 0.61 106.07 0.61ZM135.09 0L131.28 0 131.28-33.84 135.46-33.84 147.98-12.16Q148.91-10.45 149.85-8.69 150.79-6.93 151.62-5.2L151.62-5.2 151.84-5.2Q151.67-7.74 151.5-10.46 151.33-13.18 151.33-15.82L151.33-15.82 151.33-33.84 155.14-33.84 155.14 0 151.01 0 138.44-21.63Q137.51-23.34 136.59-25.12 135.68-26.9 134.78-28.64L134.78-28.64 134.58-28.64Q134.73-26.1 134.91-23.45 135.09-20.8 135.09-18.19L135.09-18.19 135.09 0ZM169.86 0.61L169.86 0.61Q166.73 0.61 164.63-1.21 162.53-3.03 162.53-6.42L162.53-6.42Q162.53-10.52 166.25-12.72 169.98-14.92 178.01-15.82L178.01-15.82Q178.01-17.48 177.56-18.97 177.11-20.46 175.97-21.41 174.84-22.36 172.74-22.36L172.74-22.36Q170.51-22.36 168.57-21.51 166.63-20.65 165.17-19.73L165.17-19.73 163.63-22.36Q165.29-23.51 167.82-24.56 170.34-25.61 173.37-25.61L173.37-25.61Q177.94-25.61 179.95-22.8 181.96-20 181.96-15.41L181.96-15.41 181.96 0 178.67 0 178.35-3.03 178.21-3.03Q176.4-1.54 174.29-0.46 172.17 0.61 169.86 0.61ZM170.93-2.56L170.93-2.56Q172.81-2.56 174.46-3.44 176.11-4.32 178.01-5.96L178.01-5.96 178.01-13.18Q173.69-12.65 171.15-11.77 168.61-10.89 167.51-9.64 166.41-8.4 166.41-6.74L166.41-6.74Q166.41-4.52 167.73-3.54 169.05-2.56 170.93-2.56ZM190.19 10.86L190.19 10.86Q189.36 10.86 188.63 10.71 187.9 10.55 187.31 10.3L187.31 10.3 188.14 7.2Q188.6 7.35 189.09 7.46 189.58 7.57 189.99 7.57L189.99 7.57Q192.17 7.57 193.56 5.98 194.95 4.39 195.76 2L195.76 2 196.39 0.1 186.28-24.98 190.36-24.98 195.61-10.86Q196.2-9.23 196.83-7.39 197.47-5.54 198.08-3.81L198.08-3.81 198.3-3.81Q198.83-5.54 199.37-7.37 199.91-9.2 200.4-10.86L200.4-10.86 205.03-24.98 208.92-24.98 199.42 2.2Q198.56 4.61 197.36 6.58 196.15 8.54 194.4 9.7 192.66 10.86 190.19 10.86ZM219.56 0.61L219.56 0.61Q216.43 0.61 214.33-1.21 212.23-3.03 212.23-6.42L212.23-6.42Q212.23-10.52 215.96-12.72 219.68-14.92 227.71-15.82L227.71-15.82Q227.71-17.48 227.26-18.97 226.81-20.46 225.67-21.41 224.54-22.36 222.44-22.36L222.44-22.36Q220.22-22.36 218.28-21.51 216.33-20.65 214.87-19.73L214.87-19.73 213.33-22.36Q214.99-23.51 217.52-24.56 220.05-25.61 223.07-25.61L223.07-25.61Q227.64-25.61 229.65-22.8 231.67-20 231.67-15.41L231.67-15.41 231.67 0 228.37 0 228.05-3.03 227.91-3.03Q226.1-1.54 223.99-0.46 221.88 0.61 219.56 0.61ZM220.63-2.56L220.63-2.56Q222.51-2.56 224.16-3.44 225.81-4.32 227.71-5.96L227.71-5.96 227.71-13.18Q223.39-12.65 220.85-11.77 218.31-10.89 217.21-9.64 216.12-8.4 216.12-6.74L216.12-6.74Q216.12-4.52 217.43-3.54 218.75-2.56 220.63-2.56ZM243.55 0L239.65 0 239.65-36.74 243.55-36.74 243.55-11.57 243.7-11.57 254.59-24.98 259.01-24.98 250.66-14.94 260.16 0 255.83 0 248.41-12.21 243.55-6.64 243.55 0Z" opacity="1" transform="matrix(1,0,0,1,0,0)" fill="#000000" class="wordmark-text-0" data-fill-palette-color="primary" id="text-0"></path></svg></g></svg></g></svg></g></svg></g><g><svg viewBox="0 0 244.43135999999998 128.2843000588882" height="128.2843000588882" width="244.43135999999998"><g><svg xmlns="http://www.w3.org/2000/svg" xmlns:xlink="http://www.w3.org/1999/xlink" version="1.1" x="0" y="0" viewBox="5 26.381999999999998 90.001 47.23499999999999" enable-background="new 0 0 100 100" xml:space="preserve" height="128.2843000588882" width="244.43135999999998" class="icon-icon-0" data-fill-palette-color="accent" id="icon-0"><path fill="none" d="M50.482 28.475c-0.03 0.03-0.071 0.048-0.106 0.072C50.411 28.522 50.452 28.505 50.482 28.475z"></path><path fill="none" d="M50.628 28.259c-0.021 0.052-0.06 0.093-0.093 0.138C50.568 28.352 50.606 28.311 50.628 28.259z"></path><path fill="none" d="M50.553 27.618c0.025 0.037 0.058 0.069 0.075 0.111C50.61 27.688 50.578 27.655 50.553 27.618z"></path><path fill="none" d="M50.266 28.621c-0.082 0.034-0.171 0.053-0.265 0.053C50.095 28.674 50.184 28.655 50.266 28.621z"></path><path fill="none" d="M50.001 28.674c-0.375 0-0.68-0.304-0.68-0.68s0.305-0.68 0.68-0.68c-0.376 0-0.681 0.304-0.681 0.68S49.625 28.674 50.001 28.674z"></path><path fill="none" d="M50.001 27.314c0.094 0 0.183 0.019 0.265 0.053C50.184 27.333 50.095 27.314 50.001 27.314z"></path><path fill="none" d="M50.376 27.442c0.036 0.024 0.076 0.041 0.106 0.071C50.452 27.483 50.412 27.466 50.376 27.442z"></path><path fill="none" d="M54.305 70.684c0.375 0 0.678 0.305 0.68 0.68C54.984 70.988 54.68 70.684 54.305 70.684z"></path><path d="M86.63 69.109c0.108-0.227 0.177-0.478 0.177-0.746V28.107c0-0.953-0.772-1.725-1.727-1.725H14.92c-0.953 0-1.724 0.772-1.724 1.725v40.256c0 0.269 0.066 0.52 0.176 0.746H5v2.783c0 0.953 0.773 1.725 1.726 1.725h86.549c0.953 0 1.726-0.771 1.726-1.725v-2.783H86.63zM50.001 27.314c0.094 0 0.183 0.019 0.265 0.053 0.042 0.018 0.074 0.049 0.11 0.075 0.036 0.024 0.076 0.041 0.106 0.071 0.03 0.03 0.047 0.07 0.071 0.105 0.025 0.037 0.058 0.069 0.075 0.111 0.034 0.081 0.054 0.171 0.054 0.265s-0.02 0.183-0.054 0.265c-0.021 0.052-0.06 0.093-0.093 0.138-0.02 0.025-0.031 0.056-0.053 0.078-0.03 0.03-0.071 0.048-0.106 0.072-0.037 0.025-0.069 0.057-0.11 0.074-0.082 0.034-0.171 0.053-0.265 0.053-0.376 0-0.681-0.304-0.681-0.68S49.625 27.314 50.001 27.314zM16.143 29.708h67.714v36.571H16.143V29.708zM54.305 72.046h-8.608c-0.375 0-0.68-0.305-0.68-0.683 0-0.375 0.305-0.68 0.68-0.68h8.608c0.375 0 0.68 0.305 0.68 0.68C54.984 71.741 54.68 72.046 54.305 72.046z" fill="#000000" data-fill-palette-color="accent"></path><polygon points="25.039,48.313 25.039,49.536 25.039,49.537 44.878,49.537 44.878,49.536 44.878,48.313 44.878,48.312   25.039,48.312 " fill="#000000" data-fill-palette-color="accent"></polygon><rect x="36.633" y="58.613" width="3.488" height="1.225" fill="#000000" data-fill-palette-color="accent"></rect><rect x="46.552" y="48.313" width="3.488" height="1.224" fill="#000000" data-fill-palette-color="accent"></rect><rect x="39.377" y="46.296" width="3.488" height="1.224" fill="#000000" data-fill-palette-color="accent"></rect><rect x="20.692" y="31.829" width="3.489" height="1.224" fill="#000000" data-fill-palette-color="accent"></rect><rect x="20.692" y="42.131" width="3.489" height="1.224" fill="#000000" data-fill-palette-color="accent"></rect><rect x="20.692" y="46.296" width="3.489" height="1.224" fill="#000000" data-fill-palette-color="accent"></rect><rect x="20.692" y="48.313" width="3.489" height="1.224" fill="#000000" data-fill-palette-color="accent"></rect><rect x="20.692" y="44.191" width="5.832" height="1.224" fill="#000000" data-fill-palette-color="accent"></rect><rect x="25.039" y="46.296" width="12.665" height="1.224" fill="#000000" data-fill-palette-color="accent"></rect><rect x="20.692" y="50.373" width="3.489" height="1.223" fill="#000000" data-fill-palette-color="accent"></rect><rect x="20.692" y="54.494" width="3.489" height="1.223" fill="#000000" data-fill-palette-color="accent"></rect><rect x="53.637" y="50.373" width="3.488" height="1.223" fill="#000000" data-fill-palette-color="accent"></rect><rect x="25.039" y="50.373" width="27.761" height="1.223" fill="#000000" data-fill-palette-color="accent"></rect><rect x="20.692" y="52.434" width="27.792" height="1.223" fill="#000000" data-fill-palette-color="accent"></rect><rect x="25.039" y="54.494" width="23.444" height="1.223" fill="#000000" data-fill-palette-color="accent"></rect><rect x="20.692" y="56.555" width="17.012" height="1.223" fill="#000000" data-fill-palette-color="accent"></rect><rect x="20.692" y="58.613" width="14.267" height="1.225" fill="#000000" data-fill-palette-color="accent"></rect><rect x="20.692" y="60.674" width="7.134" height="1.225" fill="#000000" data-fill-palette-color="accent"></rect><rect x="20.692" y="62.736" width="5.832" height="1.223" fill="#000000" data-fill-palette-color="accent"></rect><rect x="20.692" y="33.89" width="8.694" height="1.224" fill="#000000" data-fill-palette-color="accent"></rect><rect x="20.692" y="35.95" width="11.594" height="1.224" fill="#000000" data-fill-palette-color="accent"></rect><rect x="20.692" y="38.01" width="8.694" height="1.224" fill="#000000" data-fill-palette-color="accent"></rect><rect x="20.692" y="40.071" width="8.694" height="1.224" fill="#000000" data-fill-palette-color="accent"></rect><rect x="18.798" y="31.829" width="1.058" height="1.224" fill="#000000" data-fill-palette-color="accent"></rect><rect x="18.798" y="33.89" width="1.058" height="1.224" fill="#000000" data-fill-palette-color="accent"></rect><rect x="18.798" y="35.95" width="1.058" height="1.224" fill="#000000" data-fill-palette-color="accent"></rect><rect x="18.798" y="38.01" width="1.058" height="1.224" fill="#000000" data-fill-palette-color="accent"></rect><rect x="18.798" y="40.071" width="1.058" height="1.224" fill="#000000" data-fill-palette-color="accent"></rect><rect x="18.798" y="42.131" width="1.058" height="1.224" fill="#000000" data-fill-palette-color="accent"></rect><rect x="18.798" y="44.191" width="1.058" height="1.224" fill="#000000" data-fill-palette-color="accent"></rect><rect x="18.798" y="46.252" width="1.058" height="1.224" fill="#000000" data-fill-palette-color="accent"></rect><rect x="18.798" y="48.313" width="1.058" height="1.224" fill="#000000" data-fill-palette-color="accent"></rect><rect x="18.798" y="50.373" width="1.058" height="1.223" fill="#000000" data-fill-palette-color="accent"></rect><rect x="18.798" y="52.434" width="1.058" height="1.223" fill="#000000" data-fill-palette-color="accent"></rect><rect x="18.798" y="54.494" width="1.058" height="1.223" fill="#000000" data-fill-palette-color="accent"></rect><rect x="18.798" y="56.555" width="1.058" height="1.223" fill="#000000" data-fill-palette-color="accent"></rect><rect x="18.798" y="58.613" width="1.058" height="1.225" fill="#000000" data-fill-palette-color="accent"></rect><rect x="18.798" y="60.674" width="1.058" height="1.225" fill="#000000" data-fill-palette-color="accent"></rect><rect x="18.798" y="62.736" width="1.058" height="1.223" fill="#000000" data-fill-palette-color="accent"></rect></svg></g></svg></g></svg></g><defs></defs></svg><rect width="395.52" height="77.16939246510876" fill="none" stroke="none" visibility="hidden"></rect></g></svg></g></svg>